<?xml version="1.0" encoding="UTF-8"?>
<svg id="Calque_2" data-name="Calque 2" xmlns="http://www.w3.org/2000/svg" xmlns:xlink="http://www.w3.org/1999/xlink" viewBox="0 0 70 70">
  <defs>
    <style>
      .cls-1 {
        fill: #e30613;
      }

      .cls-2 {
        fill: url(#Dégradé_sans_nom_89);
      }

      .cls-3 {
        fill: none;
      }
    </style>
    <linearGradient id="Dégradé_sans_nom_89" data-name="Dégradé sans nom 89" x1="35.99" y1="11.99" x2="35.58" y2="45.7" gradientUnits="userSpaceOnUse">
      <stop offset="0" stop-color="#fff"/>
      <stop offset="1" stop-color="#000"/>
    </linearGradient>
  </defs>
  <g id="Calque_1-2" data-name="Calque 1">
    <rect class="cls-3" width="70" height="69.78"/>
    <rect class="cls-1" width="70" height="70"/>
    <path id="Icon_ion-game-controller" data-name="Icon ion-game-controller" class="cls-2" d="M51.62,34.61c-1.49-6.74-3.74-10.34-7.07-11.32-.7-.2-1.43-.3-2.16-.3-.92,.03-1.82,.2-2.69,.48-1.31,.41-2.68,.63-4.06,.64-1.38,0-2.75-.23-4.06-.64-.87-.29-1.77-.45-2.69-.48-.75,0-1.5,.1-2.23,.3-3.31,.98-5.55,4.58-7.07,11.32-1.63,7.26-.83,11.84,2.25,12.9,.42,.15,.86,.22,1.31,.23,2.1,0,3.79-1.75,4.95-3.19,1.3-1.62,2.83-2.45,7.55-2.45,4.22,0,5.96,.57,7.47,2.45,.75,1,1.68,1.86,2.73,2.53,1.05,.67,2.34,.84,3.53,.45,1.81-.62,2.86-2.26,3.09-4.87,.11-2.71-.17-5.42-.85-8.04Zm-19.34-.38h-2.25v2.25c0,.62-.5,1.12-1.12,1.12s-1.12-.5-1.12-1.12v-2.25h-2.25c-.62,0-1.12-.5-1.12-1.12s.5-1.12,1.12-1.12h2.25v-2.25c0-.62,.5-1.12,1.12-1.12s1.12,.5,1.12,1.12v2.25h2.25c.62,0,1.12,.5,1.12,1.12s-.5,1.12-1.12,1.12Zm5.91,.28c-.78,0-1.41-.63-1.41-1.41s.63-1.41,1.41-1.41,1.41,.63,1.41,1.41-.63,1.41-1.41,1.41c0,0,0,0,0,0Zm3.09,3.09c-.78,0-1.41-.63-1.41-1.41s.63-1.41,1.41-1.41c.78,0,1.41,.63,1.41,1.41,0,0,0,0,0,0,0,.77-.63,1.4-1.41,1.4Zm0-6.19c-.78,0-1.41-.63-1.41-1.41s.63-1.41,1.41-1.41,1.41,.63,1.41,1.41-.63,1.41-1.41,1.41h0Zm3.09,3.09c-.78,0-1.41-.63-1.41-1.41s.63-1.41,1.41-1.41,1.41,.63,1.41,1.41c0,.78-.63,1.41-1.41,1.41h0Z"/>
  </g>
</svg>