<?xml version="1.0" encoding="utf-8"?>
<!-- Generator: Adobe Illustrator 27.0.0, SVG Export Plug-In . SVG Version: 6.00 Build 0)  -->
<svg version="1.1" id="Calque_1" xmlns="http://www.w3.org/2000/svg" xmlns:xlink="http://www.w3.org/1999/xlink" x="0px" y="0px"
	 viewBox="0 0 70 70" style="enable-background:new 0 0 70 70;" xml:space="preserve">
<style type="text/css">
	.st0{fill:none;}
	.st1{fill:#E30613;}
	.st2{fill:url(#Icon_ion-game-controller_00000172414497481241645550000000172436184540599737_);}
</style>
<rect x="0.01" y="-0.03" class="st0" width="70" height="69.78"/>
<rect x="0.01" y="-0.03" class="st1" width="70" height="70"/>
<linearGradient id="Icon_ion-game-controller_00000077289510056121495560000004209490475476997272_" gradientUnits="userSpaceOnUse" x1="36.0055" y1="11.9539" x2="35.5952" y2="45.6695">
	<stop  offset="0" style="stop-color:#FFFFFF"/>
	<stop  offset="1" style="stop-color:#000000"/>
</linearGradient>
<path id="Icon_ion-game-controller" style="fill:url(#Icon_ion-game-controller_00000077289510056121495560000004209490475476997272_);" d="
	M51.63,34.58c-1.49-6.74-3.74-10.34-7.06-11.32c-0.7-0.2-1.43-0.3-2.16-0.3c-0.92,0.03-1.82,0.2-2.69,0.48
	c-1.31,0.41-2.68,0.63-4.06,0.64c-1.38-0.01-2.75-0.23-4.06-0.64c-0.87-0.29-1.77-0.45-2.69-0.48c-0.75,0-1.5,0.1-2.23,0.3
	c-3.31,0.98-5.56,4.58-7.07,11.32c-1.63,7.26-0.83,11.84,2.25,12.9c0.42,0.15,0.86,0.22,1.31,0.23c2.1,0,3.79-1.75,4.94-3.19
	c1.3-1.62,2.83-2.45,7.55-2.45c4.22,0,5.96,0.57,7.47,2.45c0.75,1,1.68,1.86,2.73,2.53c1.05,0.67,2.34,0.84,3.53,0.45
	c1.81-0.62,2.86-2.26,3.09-4.87C52.6,39.91,52.31,37.21,51.63,34.58z M32.29,34.2h-2.25v2.25c0,0.62-0.5,1.12-1.12,1.12
	s-1.12-0.5-1.12-1.12V34.2h-2.25c-0.62,0-1.12-0.5-1.12-1.12c0-0.62,0.5-1.12,1.12-1.12h2.25V29.7c0-0.62,0.5-1.12,1.12-1.12
	s1.12,0.5,1.12,1.12v2.25h2.25c0.62,0,1.12,0.5,1.12,1.12C33.41,33.7,32.91,34.2,32.29,34.2z M38.19,34.48
	c-0.78,0-1.41-0.63-1.41-1.41s0.63-1.41,1.41-1.41s1.41,0.63,1.41,1.41S38.97,34.48,38.19,34.48
	C38.19,34.48,38.19,34.48,38.19,34.48z M41.29,37.58c-0.78,0-1.41-0.63-1.41-1.41s0.63-1.41,1.41-1.41c0.78,0,1.41,0.63,1.41,1.41
	c0,0,0,0,0,0.01C42.69,36.95,42.06,37.58,41.29,37.58z M41.29,31.39c-0.78,0-1.41-0.63-1.41-1.41s0.63-1.41,1.41-1.41
	s1.41,0.63,1.41,1.41S42.06,31.39,41.29,31.39L41.29,31.39z M44.38,34.48c-0.78,0-1.41-0.63-1.41-1.41s0.63-1.41,1.41-1.41
	s1.41,0.63,1.41,1.41C45.79,33.86,45.16,34.48,44.38,34.48L44.38,34.48z"/>
</svg>
